<svg xmlns="http://www.w3.org/2000/svg" width="1100" height="240" viewBox="0 0 1100 240" role="img" aria-labelledby="title desc">
  <title id="title">Jaxtor reinforcement learning components</title>
  <desc id="desc">Five bold technical icons depict a gridworld, parallel environment rollouts, a replay buffer, continuous control, and evaluation returns.</desc>
  <style>
    @media (prefers-color-scheme: dark) {
      [fill="#fbfcfd"] { fill: #161b22; }
      [stroke="#fbfcfd"] { stroke: #161b22; }
      [stroke="#cbd3dc"] { stroke: #3a424c; }
      [stroke="#dbe1e7"] { stroke: #2f3740; }
      [fill="#e2e7ec"] { fill: #242b33; }
      [stroke="#c7cfd8"] { stroke: #48525d; }
      [fill="#9aa4af"] { fill: #414b56; }
      [fill="#aab3bd"] { fill: #53606d; }
      [stroke="#aab3bd"] { stroke: #53606d; }
      [fill="#6f7a87"] { fill: #89939f; }
      [stroke="#6f7a87"] { stroke: #89939f; }
      [fill="#4285F4"] { fill: #8FB6F9; }
      [stroke="#4285F4"] { stroke: #8FB6F9; }
      [fill="#0FA8AD"] { fill: #5CCBCF; }
      [stroke="#0FA8AD"] { stroke: #5CCBCF; }
      [fill="#7B1FA2"] { fill: #B061CE; }
      [stroke="#7B1FA2"] { stroke: #B061CE; }
      [stroke="#b8c1cb"] { stroke: #495460; }
      [fill="#e9edf1"] { fill: #202730; }
      [fill="#e4e8ed"] { fill: #242b33; }
    }
  </style>

  <!-- Gridworld -->
  <g>
    <rect class="card" fill="#fbfcfd" stroke="#cbd3dc" x="0.6" y="0.6" width="224.8" height="238.8" rx="8" stroke-width="1.2"/>
    <g transform="translate(23 30)">
      <g class="grid-capsules" fill="none" stroke="#c7cfd8" stroke-width="1.6" stroke-linecap="round">
        <path d="M30 4V26 M30 34V56 M30 64V86 M30 94V116 M30 124V146 M30 154V176"/>
        <path d="M60 4V26 M60 34V56 M60 64V86 M60 94V116 M60 124V146 M60 154V176"/>
        <path d="M90 4V26 M90 34V56 M90 64V86 M90 94V116 M90 124V146 M90 154V176"/>
        <path d="M120 4V26 M120 34V56 M120 64V86 M120 94V116 M120 124V146 M120 154V176"/>
        <path d="M150 4V26 M150 34V56 M150 64V86 M150 94V116 M150 124V146 M150 154V176"/>
        <path d="M4 30H26 M34 30H56 M64 30H86 M94 30H116 M124 30H146 M154 30H176"/>
        <path d="M4 60H26 M34 60H56 M64 60H86 M94 60H116 M124 60H146 M154 60H176"/>
        <path d="M4 90H26 M34 90H56 M64 90H86 M94 90H116 M124 90H146 M154 90H176"/>
        <path d="M4 120H26 M34 120H56 M64 120H86 M94 120H116 M124 120H146 M154 120H176"/>
        <path d="M4 150H26 M34 150H56 M64 150H86 M94 150H116 M124 150H146 M154 150H176"/>
      </g>
      <g class="blocked" fill="#9aa4af">
        <rect x="60" y="60" width="30" height="30" rx="1"/>
        <rect x="90" y="60" width="30" height="30" rx="1"/>
        <rect x="60" y="90" width="30" height="30" rx="1"/>
        <rect x="120" y="90" width="30" height="30" rx="1"/>
      </g>
      <rect class="world-boundary" x="0" y="0" width="180" height="180" rx="2" fill="none" stroke="#6f7a87" stroke-width="2.6"/>
      <path class="route" fill="none" stroke="#0FA8AD" d="M15 165V15H165" stroke-width="2.6" stroke-dasharray="6 5" stroke-linecap="round"/>
      <circle class="blue-fill" fill="#4285F4" cx="15" cy="165" r="7.5"/>
      <rect class="goal" fill="#7B1FA2" x="159.5" y="9.5" width="11" height="11" rx="1.5" transform="rotate(45 165 15)"/>
    </g>
  </g>

  <!-- Parallel environment rollouts -->
  <g transform="translate(240)">
    <rect class="card" fill="#fbfcfd" stroke="#cbd3dc" x="0.6" y="0.6" width="224.8" height="238.8" rx="8" stroke-width="1.2"/>
    <g transform="translate(23 30)">
      <g class="rollout-blue">
        <path fill="none" stroke="#4285F4" d="M21 31C34 31 38 18 52 18S72 44 87 38S107 18 123 24S148 39 168 29" stroke-width="2.8" stroke-linecap="round"/>
        <g fill="#4285F4">
          <rect x="3" y="22" width="18" height="18" rx="4"/>
          <circle cx="52" cy="18" r="3.2"/><circle cx="87" cy="38" r="3.2"/><circle cx="123" cy="24" r="3.2"/><circle cx="168" cy="29" r="4.5"/>
        </g>
        <circle fill="#fbfcfd" cx="12" cy="31" r="2.6"/>
      </g>
      <g class="rollout-teal">
        <path fill="none" stroke="#0FA8AD" d="M21 90C34 90 38 104 52 104S72 76 87 78S107 101 123 94S148 76 168 84" stroke-width="2.8" stroke-linecap="round"/>
        <g fill="#0FA8AD">
          <rect x="3" y="81" width="18" height="18" rx="4"/>
          <circle cx="52" cy="104" r="3.2"/><circle cx="87" cy="78" r="3.2"/><circle cx="123" cy="94" r="3.2"/><circle cx="168" cy="84" r="4.5"/>
        </g>
        <circle fill="#fbfcfd" cx="12" cy="90" r="2.6"/>
      </g>
      <g class="rollout-purple">
        <path fill="none" stroke="#7B1FA2" d="M21 149C34 149 38 134 52 134S72 160 87 160S107 135 123 141S149 160 168 151" stroke-width="2.8" stroke-linecap="round"/>
        <g fill="#7B1FA2">
          <rect x="3" y="140" width="18" height="18" rx="4"/>
          <circle cx="52" cy="134" r="3.2"/><circle cx="87" cy="160" r="3.2"/><circle cx="123" cy="141" r="3.2"/><circle cx="168" cy="151" r="4.5"/>
        </g>
        <circle fill="#fbfcfd" cx="12" cy="149" r="2.6"/>
      </g>
    </g>
  </g>

  <!-- Replay buffer -->
  <g transform="translate(480)">
    <rect class="card" fill="#fbfcfd" stroke="#cbd3dc" x="0.6" y="0.6" width="138.8" height="238.8" rx="8" stroke-width="1.2"/>
    <g transform="translate(14 18)">
      <rect class="buffer-frame" fill="none" stroke="#b8c1cb" width="112" height="204" rx="5" stroke-width="1.5"/>
      <g transform="translate(4 6)">
        <g>
          <rect class="sample-record" fill="#4285F4" width="104" height="16" rx="3"/>
          <g class="sample-symbol" fill="#fbfcfd">
            <circle cx="10" cy="8" r="3"/><rect x="19" y="4" width="8" height="8" rx="1.5"/><circle cx="94" cy="8" r="3"/>
          </g>
          <line class="sample-line" stroke="#fbfcfd" x1="36" y1="8" x2="58" y2="8" stroke-width="2" stroke-linecap="round"/>
        </g>
        <g transform="translate(0 22)">
          <rect class="record" fill="#e9edf1" width="104" height="16" rx="3"/>
          <g class="record-symbol" fill="#6f7a87"><circle cx="10" cy="8" r="3"/><rect x="19" y="4" width="8" height="8" rx="1.5"/><circle cx="94" cy="8" r="3"/></g>
          <line class="record-line" stroke="#6f7a87" x1="36" y1="8" x2="53" y2="8" stroke-width="2" stroke-linecap="round"/>
        </g>
        <g transform="translate(0 44)">
          <rect class="record" fill="#e9edf1" width="104" height="16" rx="3"/>
          <g class="record-symbol" fill="#6f7a87"><circle cx="10" cy="8" r="3"/><rect x="19" y="4" width="8" height="8" rx="1.5"/><circle cx="94" cy="8" r="3"/></g>
          <line class="record-line" stroke="#6f7a87" x1="36" y1="8" x2="60" y2="8" stroke-width="2" stroke-linecap="round"/>
        </g>
        <g transform="translate(0 66)">
          <rect class="sample-record" fill="#0FA8AD" width="104" height="16" rx="3"/>
          <g class="sample-symbol" fill="#fbfcfd"><circle cx="10" cy="8" r="3"/><rect x="19" y="4" width="8" height="8" rx="1.5"/><circle cx="94" cy="8" r="3"/></g>
          <line class="sample-line" stroke="#fbfcfd" x1="36" y1="8" x2="55" y2="8" stroke-width="2" stroke-linecap="round"/>
        </g>
        <g transform="translate(0 88)">
          <rect class="record" fill="#e9edf1" width="104" height="16" rx="3"/>
          <g class="record-symbol" fill="#6f7a87"><circle cx="10" cy="8" r="3"/><rect x="19" y="4" width="8" height="8" rx="1.5"/><circle cx="94" cy="8" r="3"/></g>
          <line class="record-line" stroke="#6f7a87" x1="36" y1="8" x2="58" y2="8" stroke-width="2" stroke-linecap="round"/>
        </g>
        <g transform="translate(0 110)">
          <rect class="record" fill="#e9edf1" width="104" height="16" rx="3"/>
          <g class="record-symbol" fill="#6f7a87"><circle cx="10" cy="8" r="3"/><rect x="19" y="4" width="8" height="8" rx="1.5"/><circle cx="94" cy="8" r="3"/></g>
          <line class="record-line" stroke="#6f7a87" x1="36" y1="8" x2="52" y2="8" stroke-width="2" stroke-linecap="round"/>
        </g>
        <g transform="translate(0 132)">
          <rect class="sample-record" fill="#7B1FA2" width="104" height="16" rx="3"/>
          <g class="sample-symbol" fill="#fbfcfd"><circle cx="10" cy="8" r="3"/><rect x="19" y="4" width="8" height="8" rx="1.5"/><circle cx="94" cy="8" r="3"/></g>
          <line class="sample-line" stroke="#fbfcfd" x1="36" y1="8" x2="60" y2="8" stroke-width="2" stroke-linecap="round"/>
        </g>
        <g transform="translate(0 154)">
          <rect class="record" fill="#e9edf1" width="104" height="16" rx="3"/>
          <g class="record-symbol" fill="#6f7a87"><circle cx="10" cy="8" r="3"/><rect x="19" y="4" width="8" height="8" rx="1.5"/><circle cx="94" cy="8" r="3"/></g>
          <line class="record-line" stroke="#6f7a87" x1="36" y1="8" x2="54" y2="8" stroke-width="2" stroke-linecap="round"/>
        </g>
        <g transform="translate(0 176)">
          <rect class="record" fill="#e9edf1" width="104" height="16" rx="3"/>
          <g class="record-symbol" fill="#6f7a87"><circle cx="10" cy="8" r="3"/><rect x="19" y="4" width="8" height="8" rx="1.5"/><circle cx="94" cy="8" r="3"/></g>
          <line class="record-line" stroke="#6f7a87" x1="36" y1="8" x2="60" y2="8" stroke-width="2" stroke-linecap="round"/>
        </g>
      </g>
    </g>
  </g>

  <!-- Continuous control -->
  <g transform="translate(634)">
    <rect class="card" fill="#fbfcfd" stroke="#cbd3dc" x="0.6" y="0.6" width="224.8" height="238.8" rx="8" stroke-width="1.2"/>
    <g transform="translate(23 30)">
      <line class="axis" stroke="#c7cfd8" x1="0" y1="180" x2="180" y2="180" stroke-width="1.2"/>
      <path class="terrain" fill="none" stroke="#6f7a87" d="M0 128 C20 128 36 143 58 150 C76 156 90 152 106 128 C119 108 132 66 152 46 C161 37 170 32 180 28" stroke-width="2.8" stroke-linecap="round"/>
      <circle class="blue-fill" fill="#4285F4" cx="68" cy="143.8" r="8"/>
      <g class="goal-flag">
        <line x1="167" y1="34" x2="167" y2="9" stroke="#4285F4" stroke-width="2.4" stroke-linecap="round"/>
        <path d="M169 10L180 14.5L169 19Z" fill="#4285F4"/>
      </g>
    </g>
  </g>

  <!-- Evaluation returns -->
  <g transform="translate(874)">
    <rect class="card" fill="#fbfcfd" stroke="#cbd3dc" x="0.6" y="0.6" width="224.8" height="238.8" rx="8" stroke-width="1.2"/>
    <g transform="translate(23 30)">
      <path class="axis" fill="none" stroke="#c7cfd8" d="M0 0V180H180" stroke-width="1.2"/>
      <path class="band" fill="#e4e8ed" d="M8 76 C40 70 64 74 94 68 C126 73 150 65 180 70 L180 116 C150 110 126 118 94 112 C64 118 40 110 8 116 Z"/>
      <path class="mean" fill="none" stroke="#7B1FA2" d="M8 94 C38 96 62 90 92 93 C122 90 151 95 180 91" stroke-width="2.7" stroke-linecap="round"/>
      <g class="observation" fill="#6f7a87">
        <circle cx="8" cy="88" r="2.7"/><circle cx="26" cy="96" r="2.7"/><circle cx="44" cy="92" r="2.7"/>
        <circle cx="62" cy="100" r="2.7"/><circle cx="80" cy="86" r="2.7"/><circle cx="98" cy="94" r="2.7"/>
        <circle cx="116" cy="90" r="2.7"/><circle cx="134" cy="98" r="2.7"/><circle cx="152" cy="84" r="2.7"/>
        <circle cx="170" cy="102" r="2.7"/><circle cx="17" cy="74" r="2.7"/><circle cx="53" cy="108" r="2.7"/>
        <circle cx="89" cy="72" r="2.7"/><circle cx="125" cy="110" r="2.7"/><circle cx="161" cy="70" r="2.7"/>
        <circle cx="35" cy="54" r="2.7"/><circle cx="143" cy="50" r="2.7"/>
      </g>
    </g>
  </g>
</svg>
